<svg width="800" height="500" viewBox="0 0 800 500" xmlns="http://www.w3.org/2000/svg">
  <defs>
    <style>
      text { font-family: -apple-system, BlinkMacSystemFont, 'Segoe UI', sans-serif; }
    </style>
  </defs>

  <!-- Background -->
  <rect width="800" height="500" fill="#f1f5f9"/>

  <!-- Sidebar -->
  <rect x="0" y="0" width="180" height="500" fill="#1e293b"/>
  <text x="20" y="32" fill="#ffffff" font-size="16" font-weight="bold">MED Rezeption</text>
  <line x1="10" y1="44" x2="170" y2="44" stroke="#334155" stroke-width="1"/>

  <rect x="8" y="52" width="164" height="32" rx="6" fill="#334155"/>
  <text x="38" y="73" fill="#94a3b8" font-size="12">Dashboard</text>
  <circle cx="24" cy="68" r="3" fill="#94a3b8"/>

  <rect x="8" y="90" width="164" height="32" rx="6" fill="transparent"/>
  <text x="38" y="111" fill="#94a3b8" font-size="12">Voicebot</text>
  <circle cx="24" cy="106" r="3" fill="#94a3b8"/>

  <rect x="8" y="128" width="164" height="32" rx="6" fill="transparent"/>
  <text x="38" y="149" fill="#94a3b8" font-size="12">Agenten</text>
  <circle cx="24" cy="144" r="3" fill="#94a3b8"/>

  <rect x="8" y="166" width="164" height="32" rx="6" fill="transparent"/>
  <text x="38" y="187" fill="#94a3b8" font-size="12">Softphone</text>
  <circle cx="24" cy="182" r="3" fill="#94a3b8"/>

  <rect x="8" y="204" width="164" height="32" rx="6" fill="#2563eb"/>
  <text x="38" y="225" fill="#ffffff" font-size="12" font-weight="600">Uebersetzer</text>
  <circle cx="24" cy="220" r="3" fill="#ffffff"/>

  <rect x="8" y="242" width="164" height="32" rx="6" fill="transparent"/>
  <text x="38" y="263" fill="#94a3b8" font-size="12">Benutzer</text>
  <circle cx="24" cy="258" r="3" fill="#94a3b8"/>

  <!-- Topbar -->
  <rect x="180" y="0" width="620" height="48" fill="#ffffff"/>
  <line x1="180" y1="48" x2="800" y2="48" stroke="#e2e8f0" stroke-width="1"/>
  <text x="196" y="30" fill="#1e293b" font-size="16" font-weight="bold">Uebersetzer</text>

  <!-- Card: Echtzeit-Uebersetzung -->
  <rect x="192" y="60" width="596" height="188" rx="8" fill="#ffffff" stroke="#e2e8f0" stroke-width="1"/>
  <text x="204" y="84" fill="#1e293b" font-size="13" font-weight="bold">Echtzeit-Uebersetzung</text>
  <line x1="192" y1="94" x2="788" y2="94" stroke="#e2e8f0" stroke-width="1"/>

  <!-- Left language column -->
  <text x="204" y="114" fill="#64748b" font-size="10" font-weight="600">Von:</text>
  <rect x="224" y="102" width="120" height="24" rx="4" fill="#ffffff" stroke="#cbd5e1" stroke-width="1"/>
  <text x="234" y="118" fill="#1e293b" font-size="10">Deutsch</text>
  <text x="328" y="118" fill="#94a3b8" font-size="9">v</text>

  <!-- Textarea left -->
  <rect x="204" y="132" width="244" height="70" rx="6" fill="#ffffff" stroke="#cbd5e1" stroke-width="1"/>
  <text x="216" y="152" fill="#94a3b8" font-size="10">Text eingeben oder sprechen...</text>
  <text x="216" y="168" fill="#1e293b" font-size="10">Wo haben Sie Schmerzen?</text>

  <!-- Buttons left -->
  <rect x="204" y="210" width="80" height="26" rx="5" fill="#2563eb"/>
  <text x="244" y="227" fill="#ffffff" font-size="10" font-weight="600" text-anchor="middle">Sprechen</text>
  <rect x="292" y="210" width="86" height="26" rx="5" fill="#06b6d4"/>
  <text x="335" y="227" fill="#ffffff" font-size="10" font-weight="600" text-anchor="middle">Uebersetzen</text>

  <!-- Swap button center -->
  <rect x="464" y="150" width="52" height="32" rx="16" fill="#f1f5f9" stroke="#e2e8f0" stroke-width="1"/>
  <text x="490" y="171" fill="#2563eb" font-size="14" font-weight="bold" text-anchor="middle">&#x21C4;</text>

  <!-- Right language column -->
  <text x="536" y="114" fill="#64748b" font-size="10" font-weight="600">Nach:</text>
  <rect x="562" y="102" width="120" height="24" rx="4" fill="#ffffff" stroke="#cbd5e1" stroke-width="1"/>
  <text x="572" y="118" fill="#1e293b" font-size="10">Englisch</text>
  <text x="666" y="118" fill="#94a3b8" font-size="9">v</text>

  <!-- Textarea right -->
  <rect x="536" y="132" width="244" height="70" rx="6" fill="#f8fafc" stroke="#cbd5e1" stroke-width="1"/>
  <text x="548" y="152" fill="#94a3b8" font-size="10">Uebersetzung erscheint hier...</text>
  <text x="548" y="168" fill="#1e293b" font-size="10">Where do you have pain?</text>

  <!-- Buttons right -->
  <rect x="536" y="210" width="76" height="26" rx="5" fill="#22c55e"/>
  <text x="574" y="227" fill="#ffffff" font-size="10" font-weight="600" text-anchor="middle">Vorlesen</text>
  <rect x="620" y="210" width="72" height="26" rx="5" fill="#64748b"/>
  <text x="656" y="227" fill="#ffffff" font-size="10" font-weight="600" text-anchor="middle">Kopieren</text>

  <!-- Card: Medizinische Schnell-Phrasen -->
  <rect x="192" y="258" width="596" height="118" rx="8" fill="#ffffff" stroke="#e2e8f0" stroke-width="1"/>
  <text x="204" y="282" fill="#1e293b" font-size="13" font-weight="bold">Medizinische Schnell-Phrasen</text>
  <line x1="192" y1="292" x2="788" y2="292" stroke="#e2e8f0" stroke-width="1"/>

  <!-- Category tabs -->
  <rect x="204" y="300" width="72" height="22" rx="4" fill="#2563eb"/>
  <text x="240" y="315" fill="#ffffff" font-size="9" font-weight="600" text-anchor="middle">Begruessung</text>

  <rect x="282" y="300" width="66" height="22" rx="4" fill="#f1f5f9" stroke="#e2e8f0" stroke-width="1"/>
  <text x="315" y="315" fill="#64748b" font-size="9" text-anchor="middle">Anamnese</text>

  <rect x="354" y="300" width="66" height="22" rx="4" fill="#f1f5f9" stroke="#e2e8f0" stroke-width="1"/>
  <text x="387" y="315" fill="#64748b" font-size="9" text-anchor="middle">Schmerzen</text>

  <rect x="426" y="300" width="76" height="22" rx="4" fill="#f1f5f9" stroke="#e2e8f0" stroke-width="1"/>
  <text x="464" y="315" fill="#64748b" font-size="9" text-anchor="middle">Behandlung</text>

  <rect x="508" y="300" width="56" height="22" rx="4" fill="#f1f5f9" stroke="#e2e8f0" stroke-width="1"/>
  <text x="536" y="315" fill="#64748b" font-size="9" text-anchor="middle">Termin</text>

  <rect x="570" y="300" width="56" height="22" rx="4" fill="#f1f5f9" stroke="#e2e8f0" stroke-width="1"/>
  <text x="598" y="315" fill="#64748b" font-size="9" text-anchor="middle">Rezept</text>

  <!-- Phrase cards -->
  <rect x="204" y="330" width="140" height="36" rx="5" fill="#f8fafc" stroke="#e2e8f0" stroke-width="1"/>
  <text x="214" y="346" fill="#1e293b" font-size="9" font-weight="600">Guten Tag!</text>
  <text x="214" y="358" fill="#64748b" font-size="8">Good day!</text>

  <rect x="352" y="330" width="140" height="36" rx="5" fill="#f8fafc" stroke="#e2e8f0" stroke-width="1"/>
  <text x="362" y="346" fill="#1e293b" font-size="9" font-weight="600">Wie geht es Ihnen?</text>
  <text x="362" y="358" fill="#64748b" font-size="8">How are you?</text>

  <rect x="500" y="330" width="140" height="36" rx="5" fill="#f8fafc" stroke="#e2e8f0" stroke-width="1"/>
  <text x="510" y="346" fill="#1e293b" font-size="9" font-weight="600">Bitte nehmen Sie Platz</text>
  <text x="510" y="358" fill="#64748b" font-size="8">Please have a seat</text>

  <rect x="648" y="330" width="130" height="36" rx="5" fill="#f8fafc" stroke="#e2e8f0" stroke-width="1"/>
  <text x="658" y="346" fill="#1e293b" font-size="9" font-weight="600">Ihr Name bitte?</text>
  <text x="658" y="358" fill="#64748b" font-size="8">Your name please?</text>

  <!-- Card: Uebersetzungs-Verlauf -->
  <rect x="192" y="386" width="596" height="104" rx="8" fill="#ffffff" stroke="#e2e8f0" stroke-width="1"/>
  <text x="204" y="410" fill="#1e293b" font-size="13" font-weight="bold">Uebersetzungs-Verlauf</text>
  <line x1="192" y1="420" x2="788" y2="420" stroke="#e2e8f0" stroke-width="1"/>

  <!-- Table header -->
  <rect x="192" y="420" width="596" height="22" fill="#f8fafc"/>
  <text x="204" y="435" fill="#64748b" font-size="9" font-weight="600">Zeit</text>
  <text x="260" y="435" fill="#64748b" font-size="9" font-weight="600">Richtung</text>
  <text x="360" y="435" fill="#64748b" font-size="9" font-weight="600">Original</text>
  <text x="540" y="435" fill="#64748b" font-size="9" font-weight="600">Uebersetzung</text>

  <!-- Row 1 -->
  <text x="204" y="456" fill="#1e293b" font-size="10">09:15</text>
  <text x="260" y="456" fill="#1e293b" font-size="10">DE -> EN</text>
  <text x="360" y="456" fill="#1e293b" font-size="10">Wo haben Sie Schmerzen?</text>
  <text x="540" y="456" fill="#1e293b" font-size="10">Where do you have pain?</text>
  <line x1="204" y1="464" x2="776" y2="464" stroke="#f1f5f9" stroke-width="1"/>

  <!-- Row 2 -->
  <text x="204" y="480" fill="#1e293b" font-size="10">09:12</text>
  <text x="260" y="480" fill="#1e293b" font-size="10">EN -> DE</text>
  <text x="360" y="480" fill="#1e293b" font-size="10">I have a headache</text>
  <text x="540" y="480" fill="#1e293b" font-size="10">Ich habe Kopfschmerzen</text>
</svg>