<svg width="800" height="500" viewBox="0 0 800 500" xmlns="http://www.w3.org/2000/svg">
  <defs>
    <style>
      text { font-family: -apple-system, BlinkMacSystemFont, 'Segoe UI', sans-serif; }
    </style>
  </defs>

  <!-- Background -->
  <rect width="800" height="500" fill="#f1f5f9"/>

  <!-- Sidebar -->
  <rect x="0" y="0" width="180" height="500" fill="#1e293b"/>
  <text x="20" y="32" fill="#ffffff" font-size="16" font-weight="bold">MED Rezeption</text>
  <line x1="10" y1="44" x2="170" y2="44" stroke="#334155" stroke-width="1"/>

  <rect x="8" y="52" width="164" height="32" rx="6" fill="#334155"/>
  <text x="38" y="73" fill="#94a3b8" font-size="12">Dashboard</text>
  <circle cx="24" cy="68" r="3" fill="#94a3b8"/>

  <rect x="8" y="90" width="164" height="32" rx="6" fill="transparent"/>
  <text x="38" y="111" fill="#94a3b8" font-size="12">Voicebot</text>
  <circle cx="24" cy="106" r="3" fill="#94a3b8"/>

  <rect x="8" y="128" width="164" height="32" rx="6" fill="transparent"/>
  <text x="38" y="149" fill="#94a3b8" font-size="12">Agenten</text>
  <circle cx="24" cy="144" r="3" fill="#94a3b8"/>

  <rect x="8" y="166" width="164" height="32" rx="6" fill="transparent"/>
  <text x="38" y="187" fill="#94a3b8" font-size="12">Softphone</text>
  <circle cx="24" cy="182" r="3" fill="#94a3b8"/>

  <rect x="8" y="204" width="164" height="32" rx="6" fill="transparent"/>
  <text x="38" y="225" fill="#94a3b8" font-size="12">Uebersetzer</text>
  <circle cx="24" cy="220" r="3" fill="#94a3b8"/>

  <rect x="8" y="242" width="164" height="32" rx="6" fill="#2563eb"/>
  <text x="38" y="263" fill="#ffffff" font-size="12" font-weight="600">Benutzer</text>
  <circle cx="24" cy="258" r="3" fill="#ffffff"/>

  <!-- Topbar -->
  <rect x="180" y="0" width="620" height="48" fill="#ffffff"/>
  <line x1="180" y1="48" x2="800" y2="48" stroke="#e2e8f0" stroke-width="1"/>
  <text x="196" y="30" fill="#1e293b" font-size="16" font-weight="bold">Benutzer</text>

  <!-- Card: Benutzer anlegen -->
  <rect x="192" y="60" width="290" height="210" rx="8" fill="#ffffff" stroke="#e2e8f0" stroke-width="1"/>
  <text x="204" y="84" fill="#1e293b" font-size="13" font-weight="bold">Benutzer anlegen</text>
  <line x1="192" y1="94" x2="482" y2="94" stroke="#e2e8f0" stroke-width="1"/>

  <!-- Name -->
  <text x="204" y="114" fill="#64748b" font-size="10" font-weight="600">Name</text>
  <rect x="204" y="118" width="266" height="26" rx="4" fill="#ffffff" stroke="#cbd5e1" stroke-width="1"/>
  <text x="214" y="135" fill="#94a3b8" font-size="10">Vor- und Nachname</text>

  <!-- E-Mail -->
  <text x="204" y="158" fill="#64748b" font-size="10" font-weight="600">E-Mail</text>
  <rect x="204" y="162" width="170" height="26" rx="4" fill="#ffffff" stroke="#cbd5e1" stroke-width="1"/>
  <text x="214" y="179" fill="#94a3b8" font-size="10">email@beispiel.de</text>

  <!-- Alter -->
  <text x="384" y="158" fill="#64748b" font-size="10" font-weight="600">Alter</text>
  <rect x="384" y="162" width="86" height="26" rx="4" fill="#ffffff" stroke="#cbd5e1" stroke-width="1"/>
  <text x="394" y="179" fill="#94a3b8" font-size="10">z.B. 35</text>

  <!-- Adresse: Strasse -->
  <text x="204" y="202" fill="#64748b" font-size="10" font-weight="600">Strasse</text>
  <rect x="204" y="206" width="266" height="26" rx="4" fill="#ffffff" stroke="#cbd5e1" stroke-width="1"/>
  <text x="214" y="223" fill="#94a3b8" font-size="10">Strasse und Hausnummer</text>

  <!-- PLZ + Stadt -->
  <text x="204" y="246" fill="#64748b" font-size="10" font-weight="600">PLZ</text>
  <rect x="204" y="250" width="80" height="26" rx="4" fill="#ffffff" stroke="#cbd5e1" stroke-width="1"/>
  <text x="214" y="267" fill="#94a3b8" font-size="10">12345</text>

  <text x="294" y="246" fill="#64748b" font-size="10" font-weight="600">Stadt</text>
  <rect x="294" y="250" width="176" height="26" rx="4" fill="#ffffff" stroke="#cbd5e1" stroke-width="1"/>
  <text x="304" y="267" fill="#94a3b8" font-size="10">Stadt</text>

  <!-- Card: Rechner -->
  <rect x="192" y="280" width="290" height="210" rx="8" fill="#ffffff" stroke="#e2e8f0" stroke-width="1"/>
  <text x="204" y="304" fill="#1e293b" font-size="13" font-weight="bold">Rechner</text>
  <line x1="192" y1="314" x2="482" y2="314" stroke="#e2e8f0" stroke-width="1"/>

  <!-- Zahl A -->
  <text x="204" y="334" fill="#64748b" font-size="10" font-weight="600">Zahl A</text>
  <rect x="204" y="338" width="78" height="26" rx="4" fill="#ffffff" stroke="#cbd5e1" stroke-width="1"/>
  <text x="214" y="355" fill="#1e293b" font-size="10">42</text>

  <!-- Operation dropdown -->
  <text x="294" y="334" fill="#64748b" font-size="10" font-weight="600">Operation</text>
  <rect x="294" y="338" width="78" height="26" rx="4" fill="#ffffff" stroke="#cbd5e1" stroke-width="1"/>
  <text x="304" y="355" fill="#1e293b" font-size="10">+ (Add)</text>
  <text x="358" y="355" fill="#94a3b8" font-size="9">v</text>

  <!-- Zahl B -->
  <text x="384" y="334" fill="#64748b" font-size="10" font-weight="600">Zahl B</text>
  <rect x="384" y="338" width="78" height="26" rx="4" fill="#ffffff" stroke="#cbd5e1" stroke-width="1"/>
  <text x="394" y="355" fill="#1e293b" font-size="10">18</text>

  <!-- Berechnen button -->
  <rect x="204" y="374" width="258" height="30" rx="6" fill="#2563eb"/>
  <text x="333" y="394" fill="#ffffff" font-size="11" font-weight="600" text-anchor="middle">Berechnen</text>

  <!-- Result -->
  <rect x="204" y="412" width="258" height="28" rx="6" fill="#f0fdf4" stroke="#bbf7d0" stroke-width="1"/>
  <text x="333" y="430" fill="#22c55e" font-size="12" font-weight="bold" text-anchor="middle">Ergebnis: 60</text>

  <!-- Verlauf table -->
  <text x="204" y="458" fill="#64748b" font-size="10" font-weight="600">Verlauf</text>
  <rect x="204" y="462" width="258" height="20" fill="#f8fafc" rx="3"/>
  <text x="214" y="476" fill="#64748b" font-size="8" font-weight="600">Rechnung</text>
  <text x="380" y="476" fill="#64748b" font-size="8" font-weight="600">Ergebnis</text>
  <text x="214" y="490" fill="#1e293b" font-size="9">42 + 18</text>
  <text x="380" y="490" fill="#1e293b" font-size="9">60</text>

  <!-- Card: Benutzerliste -->
  <rect x="490" y="60" width="298" height="430" rx="8" fill="#ffffff" stroke="#e2e8f0" stroke-width="1"/>
  <text x="502" y="84" fill="#1e293b" font-size="13" font-weight="bold">Benutzerliste</text>

  <!-- Search bar -->
  <rect x="620" y="68" width="156" height="24" rx="4" fill="#ffffff" stroke="#cbd5e1" stroke-width="1"/>
  <text x="630" y="84" fill="#94a3b8" font-size="9">Suchen...</text>
  <line x1="490" y1="98" x2="788" y2="98" stroke="#e2e8f0" stroke-width="1"/>

  <!-- Table header -->
  <rect x="490" y="98" width="298" height="22" fill="#f8fafc"/>
  <text x="502" y="113" fill="#64748b" font-size="8" font-weight="600">ID</text>
  <text x="524" y="113" fill="#64748b" font-size="8" font-weight="600">Name</text>
  <text x="600" y="113" fill="#64748b" font-size="8" font-weight="600">E-Mail</text>
  <text x="682" y="113" fill="#64748b" font-size="8" font-weight="600">Alter</text>
  <text x="712" y="113" fill="#64748b" font-size="8" font-weight="600">Stadt</text>
  <text x="756" y="113" fill="#64748b" font-size="8" font-weight="600">Akt.</text>

  <!-- Row 1 -->
  <text x="502" y="136" fill="#1e293b" font-size="9">1</text>
  <text x="524" y="136" fill="#1e293b" font-size="9">Anna Mueller</text>
  <text x="600" y="136" fill="#1e293b" font-size="9">a.mueller@...</text>
  <text x="682" y="136" fill="#1e293b" font-size="9">34</text>
  <text x="712" y="136" fill="#1e293b" font-size="9">Berlin</text>
  <rect x="756" y="126" width="14" height="14" rx="3" fill="#dbeafe"/>
  <text x="763" y="137" fill="#2563eb" font-size="9" text-anchor="middle">E</text>
  <line x1="502" y1="144" x2="776" y2="144" stroke="#f1f5f9" stroke-width="1"/>

  <!-- Row 2 -->
  <text x="502" y="160" fill="#1e293b" font-size="9">2</text>
  <text x="524" y="160" fill="#1e293b" font-size="9">Max Schmidt</text>
  <text x="600" y="160" fill="#1e293b" font-size="9">m.schmidt@...</text>
  <text x="682" y="160" fill="#1e293b" font-size="9">28</text>
  <text x="712" y="160" fill="#1e293b" font-size="9">Hamburg</text>
  <rect x="756" y="150" width="14" height="14" rx="3" fill="#dbeafe"/>
  <text x="763" y="161" fill="#2563eb" font-size="9" text-anchor="middle">E</text>
  <line x1="502" y1="168" x2="776" y2="168" stroke="#f1f5f9" stroke-width="1"/>

  <!-- Row 3 -->
  <text x="502" y="184" fill="#1e293b" font-size="9">3</text>
  <text x="524" y="184" fill="#1e293b" font-size="9">Lisa Weber</text>
  <text x="600" y="184" fill="#1e293b" font-size="9">l.weber@...</text>
  <text x="682" y="184" fill="#1e293b" font-size="9">45</text>
  <text x="712" y="184" fill="#1e293b" font-size="9">Muenchen</text>
  <rect x="756" y="174" width="14" height="14" rx="3" fill="#dbeafe"/>
  <text x="763" y="185" fill="#2563eb" font-size="9" text-anchor="middle">E</text>
  <line x1="502" y1="192" x2="776" y2="192" stroke="#f1f5f9" stroke-width="1"/>

  <!-- Row 4 -->
  <text x="502" y="208" fill="#1e293b" font-size="9">4</text>
  <text x="524" y="208" fill="#1e293b" font-size="9">Tom Fischer</text>
  <text x="600" y="208" fill="#1e293b" font-size="9">t.fischer@...</text>
  <text x="682" y="208" fill="#1e293b" font-size="9">52</text>
  <text x="712" y="208" fill="#1e293b" font-size="9">Koeln</text>
  <rect x="756" y="198" width="14" height="14" rx="3" fill="#dbeafe"/>
  <text x="763" y="209" fill="#2563eb" font-size="9" text-anchor="middle">E</text>
  <line x1="502" y1="216" x2="776" y2="216" stroke="#f1f5f9" stroke-width="1"/>

  <!-- Row 5 -->
  <text x="502" y="232" fill="#1e293b" font-size="9">5</text>
  <text x="524" y="232" fill="#1e293b" font-size="9">Sara Klein</text>
  <text x="600" y="232" fill="#1e293b" font-size="9">s.klein@...</text>
  <text x="682" y="232" fill="#1e293b" font-size="9">31</text>
  <text x="712" y="232" fill="#1e293b" font-size="9">Frankfurt</text>
  <rect x="756" y="222" width="14" height="14" rx="3" fill="#dbeafe"/>
  <text x="763" y="233" fill="#2563eb" font-size="9" text-anchor="middle">E</text>
  <line x1="502" y1="240" x2="776" y2="240" stroke="#f1f5f9" stroke-width="1"/>

  <!-- Row 6 -->
  <text x="502" y="256" fill="#1e293b" font-size="9">6</text>
  <text x="524" y="256" fill="#1e293b" font-size="9">Jan Braun</text>
  <text x="600" y="256" fill="#1e293b" font-size="9">j.braun@...</text>
  <text x="682" y="256" fill="#1e293b" font-size="9">41</text>
  <text x="712" y="256" fill="#1e293b" font-size="9">Stuttgart</text>
  <rect x="756" y="246" width="14" height="14" rx="3" fill="#dbeafe"/>
  <text x="763" y="257" fill="#2563eb" font-size="9" text-anchor="middle">E</text>
  <line x1="502" y1="264" x2="776" y2="264" stroke="#f1f5f9" stroke-width="1"/>

  <!-- Row 7 -->
  <text x="502" y="280" fill="#1e293b" font-size="9">7</text>
  <text x="524" y="280" fill="#1e293b" font-size="9">Eva Richter</text>
  <text x="600" y="280" fill="#1e293b" font-size="9">e.richter@...</text>
  <text x="682" y="280" fill="#1e293b" font-size="9">29</text>
  <text x="712" y="280" fill="#1e293b" font-size="9">Dresden</text>
  <rect x="756" y="270" width="14" height="14" rx="3" fill="#dbeafe"/>
  <text x="763" y="281" fill="#2563eb" font-size="9" text-anchor="middle">E</text>
  <line x1="502" y1="288" x2="776" y2="288" stroke="#f1f5f9" stroke-width="1"/>

  <!-- Row 8 -->
  <text x="502" y="304" fill="#1e293b" font-size="9">8</text>
  <text x="524" y="304" fill="#1e293b" font-size="9">Paul Hoffman</text>
  <text x="600" y="304" fill="#1e293b" font-size="9">p.hoffman@...</text>
  <text x="682" y="304" fill="#1e293b" font-size="9">38</text>
  <text x="712" y="304" fill="#1e293b" font-size="9">Leipzig</text>
  <rect x="756" y="294" width="14" height="14" rx="3" fill="#dbeafe"/>
  <text x="763" y="305" fill="#2563eb" font-size="9" text-anchor="middle">E</text>
  <line x1="502" y1="312" x2="776" y2="312" stroke="#f1f5f9" stroke-width="1"/>

  <!-- Pagination -->
  <text x="640" y="480" fill="#94a3b8" font-size="10" text-anchor="middle">Seite 1 von 3</text>
  <rect x="556" y="466" width="24" height="20" rx="4" fill="#f1f5f9" stroke="#e2e8f0" stroke-width="1"/>
  <text x="568" y="480" fill="#64748b" font-size="10" text-anchor="middle">&lt;</text>
  <rect x="586" y="466" width="24" height="20" rx="4" fill="#2563eb"/>
  <text x="598" y="480" fill="#ffffff" font-size="10" text-anchor="middle">1</text>
  <rect x="614" y="466" width="24" height="20" rx="4" fill="#f1f5f9" stroke="#e2e8f0" stroke-width="1"/>
  <text x="626" y="480" fill="#64748b" font-size="10" text-anchor="middle">2</text>
  <rect x="642" y="466" width="24" height="20" rx="4" fill="#f1f5f9" stroke="#e2e8f0" stroke-width="1"/>
  <text x="654" y="480" fill="#64748b" font-size="10" text-anchor="middle">3</text>
  <rect x="700" y="466" width="24" height="20" rx="4" fill="#f1f5f9" stroke="#e2e8f0" stroke-width="1"/>
  <text x="712" y="480" fill="#64748b" font-size="10" text-anchor="middle">&gt;</text>
</svg>