<svg xmlns="http://www.w3.org/2000/svg" width="800" height="500" viewBox="0 0 800 500">
  <defs>
    <style>
      text { font-family: -apple-system, BlinkMacSystemFont, 'Segoe UI', sans-serif; }
    </style>
  </defs>

  <!-- Background -->
  <rect width="800" height="500" fill="#f1f5f9"/>

  <!-- Sidebar -->
  <rect x="0" y="0" width="180" height="500" fill="#1e293b"/>

  <!-- Logo -->
  <rect x="16" y="14" width="148" height="32" rx="6" fill="#2563eb" opacity="0.15"/>
  <text x="90" y="35" fill="#ffffff" font-size="14" font-weight="700" text-anchor="middle">MED Rezeption</text>

  <!-- Nav Items -->
  <rect x="20" y="70" width="14" height="14" rx="3" fill="#475569"/>
  <text x="42" y="82" fill="#94a3b8" font-size="12">Dashboard</text>

  <!-- Patienten - active -->
  <rect x="10" y="96" width="160" height="34" rx="6" fill="#2563eb" opacity="0.25"/>
  <rect x="20" y="106" width="14" height="14" rx="3" fill="#2563eb"/>
  <text x="42" y="118" fill="#ffffff" font-size="12" font-weight="600">Patienten</text>

  <rect x="20" y="142" width="14" height="14" rx="3" fill="#475569"/>
  <text x="42" y="154" fill="#94a3b8" font-size="12">Aerzte</text>

  <rect x="20" y="172" width="14" height="14" rx="3" fill="#475569"/>
  <text x="42" y="184" fill="#94a3b8" font-size="12">Termine</text>

  <rect x="20" y="202" width="14" height="14" rx="3" fill="#475569"/>
  <text x="42" y="214" fill="#94a3b8" font-size="12">Wartezimmer</text>

  <rect x="20" y="232" width="14" height="14" rx="3" fill="#475569"/>
  <text x="42" y="244" fill="#94a3b8" font-size="12">Callflow Editor</text>

  <!-- Topbar -->
  <rect x="180" y="0" width="620" height="48" fill="#ffffff"/>
  <line x1="180" y1="48" x2="800" y2="48" stroke="#e2e8f0" stroke-width="1"/>
  <text x="200" y="30" fill="#1e293b" font-size="16" font-weight="700">Patienten</text>

  <!-- Patient anlegen Card -->
  <rect x="192" y="60" width="594" height="168" rx="8" fill="#ffffff" stroke="#e2e8f0" stroke-width="1"/>
  <text x="208" y="84" fill="#1e293b" font-size="13" font-weight="700">Patient anlegen</text>

  <!-- Form Row 1 -->
  <text x="208" y="108" fill="#64748b" font-size="10">Vorname</text>
  <rect x="208" y="112" width="130" height="28" rx="4" fill="#ffffff" stroke="#cbd5e1" stroke-width="1"/>

  <text x="350" y="108" fill="#64748b" font-size="10">Nachname</text>
  <rect x="350" y="112" width="130" height="28" rx="4" fill="#ffffff" stroke="#cbd5e1" stroke-width="1"/>

  <text x="492" y="108" fill="#64748b" font-size="10">Geburtsdatum</text>
  <rect x="492" y="112" width="130" height="28" rx="4" fill="#ffffff" stroke="#cbd5e1" stroke-width="1"/>
  <text x="600" y="130" fill="#94a3b8" font-size="10">TT.MM.JJJJ</text>

  <text x="634" y="108" fill="#64748b" font-size="10">Krankenkasse</text>
  <rect x="634" y="112" width="140" height="28" rx="4" fill="#ffffff" stroke="#cbd5e1" stroke-width="1"/>

  <!-- Form Row 2 -->
  <text x="208" y="156" fill="#64748b" font-size="10">Versicherungsnr.</text>
  <rect x="208" y="160" width="130" height="28" rx="4" fill="#ffffff" stroke="#cbd5e1" stroke-width="1"/>

  <text x="350" y="156" fill="#64748b" font-size="10">Telefon</text>
  <rect x="350" y="160" width="130" height="28" rx="4" fill="#ffffff" stroke="#cbd5e1" stroke-width="1"/>

  <text x="492" y="156" fill="#64748b" font-size="10">Email</text>
  <rect x="492" y="160" width="130" height="28" rx="4" fill="#ffffff" stroke="#cbd5e1" stroke-width="1"/>

  <text x="634" y="156" fill="#64748b" font-size="10">Adresse</text>
  <rect x="634" y="160" width="140" height="28" rx="4" fill="#ffffff" stroke="#cbd5e1" stroke-width="1"/>

  <!-- Save Button -->
  <rect x="700" y="198" width="74" height="24" rx="4" fill="#2563eb"/>
  <text x="737" y="214" fill="#ffffff" font-size="10" font-weight="600" text-anchor="middle">Speichern</text>

  <!-- Patientenliste Card -->
  <rect x="192" y="240" width="594" height="248" rx="8" fill="#ffffff" stroke="#e2e8f0" stroke-width="1"/>
  <text x="208" y="264" fill="#1e293b" font-size="13" font-weight="700">Patientenliste</text>

  <!-- Search Box -->
  <rect x="560" y="250" width="214" height="26" rx="4" fill="#ffffff" stroke="#cbd5e1" stroke-width="1"/>
  <text x="572" y="267" fill="#94a3b8" font-size="10">Suchen...</text>

  <!-- Table Header -->
  <rect x="192" y="282" width="594" height="28" fill="#f8fafc"/>
  <text x="208" y="300" fill="#64748b" font-size="10" font-weight="600">Name</text>
  <text x="330" y="300" fill="#64748b" font-size="10" font-weight="600">Geburtsdatum</text>
  <text x="440" y="300" fill="#64748b" font-size="10" font-weight="600">Vers.-Nr.</text>
  <text x="540" y="300" fill="#64748b" font-size="10" font-weight="600">Krankenkasse</text>
  <text x="660" y="300" fill="#64748b" font-size="10" font-weight="600">Telefon</text>
  <text x="740" y="300" fill="#64748b" font-size="10" font-weight="600">Aktionen</text>
  <line x1="192" y1="310" x2="786" y2="310" stroke="#e2e8f0" stroke-width="1"/>

  <!-- Empty state rows (placeholder lines) -->
  <rect x="208" y="324" width="100" height="6" rx="3" fill="#e2e8f0"/>
  <rect x="330" y="324" width="70" height="6" rx="3" fill="#e2e8f0"/>
  <rect x="440" y="324" width="60" height="6" rx="3" fill="#e2e8f0"/>
  <rect x="540" y="324" width="80" height="6" rx="3" fill="#e2e8f0"/>
  <rect x="660" y="324" width="60" height="6" rx="3" fill="#e2e8f0"/>
  <line x1="208" y1="340" x2="774" y2="340" stroke="#f1f5f9" stroke-width="1"/>

  <rect x="208" y="352" width="90" height="6" rx="3" fill="#e2e8f0"/>
  <rect x="330" y="352" width="70" height="6" rx="3" fill="#e2e8f0"/>
  <rect x="440" y="352" width="60" height="6" rx="3" fill="#e2e8f0"/>
  <rect x="540" y="352" width="80" height="6" rx="3" fill="#e2e8f0"/>
  <rect x="660" y="352" width="60" height="6" rx="3" fill="#e2e8f0"/>
  <line x1="208" y1="368" x2="774" y2="368" stroke="#f1f5f9" stroke-width="1"/>

  <rect x="208" y="380" width="110" height="6" rx="3" fill="#e2e8f0"/>
  <rect x="330" y="380" width="70" height="6" rx="3" fill="#e2e8f0"/>
  <rect x="440" y="380" width="60" height="6" rx="3" fill="#e2e8f0"/>
  <rect x="540" y="380" width="80" height="6" rx="3" fill="#e2e8f0"/>
  <rect x="660" y="380" width="60" height="6" rx="3" fill="#e2e8f0"/>

  <!-- Empty state text -->
  <text x="489" y="440" fill="#94a3b8" font-size="11" text-anchor="middle">Keine Patienten vorhanden</text>
</svg>