<svg width="800" height="500" viewBox="0 0 800 500" xmlns="http://www.w3.org/2000/svg">
  <defs>
    <style>
      text { font-family: -apple-system, BlinkMacSystemFont, 'Segoe UI', sans-serif; }
    </style>
  </defs>

  <!-- Background -->
  <rect width="800" height="500" fill="#f1f5f9"/>

  <!-- Sidebar -->
  <rect x="0" y="0" width="180" height="500" fill="#1e293b"/>
  <!-- Logo -->
  <text x="20" y="32" fill="#ffffff" font-size="16" font-weight="bold">MED Rezeption</text>
  <line x1="10" y1="44" x2="170" y2="44" stroke="#334155" stroke-width="1"/>
  <!-- Nav items -->
  <rect x="8" y="52" width="164" height="32" rx="6" fill="#334155"/>
  <text x="38" y="73" fill="#94a3b8" font-size="12">Dashboard</text>
  <circle cx="24" cy="68" r="3" fill="#94a3b8"/>

  <rect x="8" y="90" width="164" height="32" rx="6" fill="#2563eb"/>
  <text x="38" y="111" fill="#ffffff" font-size="12" font-weight="600">Voicebot</text>
  <circle cx="24" cy="106" r="3" fill="#ffffff"/>

  <rect x="8" y="128" width="164" height="32" rx="6" fill="transparent"/>
  <text x="38" y="149" fill="#94a3b8" font-size="12">Agenten</text>
  <circle cx="24" cy="144" r="3" fill="#94a3b8"/>

  <rect x="8" y="166" width="164" height="32" rx="6" fill="transparent"/>
  <text x="38" y="187" fill="#94a3b8" font-size="12">Softphone</text>
  <circle cx="24" cy="182" r="3" fill="#94a3b8"/>

  <rect x="8" y="204" width="164" height="32" rx="6" fill="transparent"/>
  <text x="38" y="225" fill="#94a3b8" font-size="12">Uebersetzer</text>
  <circle cx="24" cy="220" r="3" fill="#94a3b8"/>

  <rect x="8" y="242" width="164" height="32" rx="6" fill="transparent"/>
  <text x="38" y="263" fill="#94a3b8" font-size="12">Benutzer</text>
  <circle cx="24" cy="258" r="3" fill="#94a3b8"/>

  <!-- Topbar -->
  <rect x="180" y="0" width="620" height="48" fill="#ffffff"/>
  <line x1="180" y1="48" x2="800" y2="48" stroke="#e2e8f0" stroke-width="1"/>
  <text x="196" y="30" fill="#1e293b" font-size="16" font-weight="bold">Voicebot</text>
  <circle cx="286" cy="26" r="5" fill="#22c55e"/>
  <text x="296" y="30" fill="#22c55e" font-size="12" font-weight="600">Aktiv</text>

  <!-- Stat Cards Row -->
  <!-- Card 1: Anrufe heute -->
  <rect x="192" y="60" width="140" height="64" rx="8" fill="#ffffff" stroke="#e2e8f0" stroke-width="1"/>
  <text x="204" y="80" fill="#64748b" font-size="10">Anrufe heute</text>
  <text x="204" y="106" fill="#1e293b" font-size="22" font-weight="bold">47</text>
  <rect x="300" y="70" width="24" height="24" rx="4" fill="#dbeafe"/>
  <text x="307" y="86" fill="#2563eb" font-size="12">T</text>

  <!-- Card 2: Termine gebucht -->
  <rect x="340" y="60" width="140" height="64" rx="8" fill="#ffffff" stroke="#e2e8f0" stroke-width="1"/>
  <text x="352" y="80" fill="#64748b" font-size="10">Termine gebucht</text>
  <text x="352" y="106" fill="#1e293b" font-size="22" font-weight="bold">12</text>
  <rect x="448" y="70" width="24" height="24" rx="4" fill="#dcfce7"/>
  <text x="456" y="86" fill="#22c55e" font-size="12">C</text>

  <!-- Card 3: Rezept-Anfragen -->
  <rect x="488" y="60" width="140" height="64" rx="8" fill="#ffffff" stroke="#e2e8f0" stroke-width="1"/>
  <text x="500" y="80" fill="#64748b" font-size="10">Rezept-Anfragen</text>
  <text x="500" y="106" fill="#1e293b" font-size="22" font-weight="bold">8</text>
  <rect x="596" y="70" width="24" height="24" rx="4" fill="#fef3c7"/>
  <text x="603" y="86" fill="#f59e0b" font-size="12">R</text>

  <!-- Card 4: Weiterleitungen -->
  <rect x="636" y="60" width="140" height="64" rx="8" fill="#ffffff" stroke="#e2e8f0" stroke-width="1"/>
  <text x="648" y="80" fill="#64748b" font-size="10">Weiterleitungen</text>
  <text x="648" y="106" fill="#1e293b" font-size="22" font-weight="bold">27</text>
  <rect x="744" y="70" width="24" height="24" rx="4" fill="#cffafe"/>
  <text x="751" y="86" fill="#06b6d4" font-size="12">W</text>

  <!-- Left Column: Voicebot Konfiguration -->
  <rect x="192" y="136" width="300" height="352" rx="8" fill="#ffffff" stroke="#e2e8f0" stroke-width="1"/>
  <text x="204" y="160" fill="#1e293b" font-size="13" font-weight="bold">Voicebot Konfiguration</text>
  <line x1="192" y1="170" x2="492" y2="170" stroke="#e2e8f0" stroke-width="1"/>

  <!-- Begruessung textarea -->
  <text x="204" y="190" fill="#64748b" font-size="10" font-weight="600">Begruessung</text>
  <rect x="204" y="196" width="276" height="50" rx="4" fill="#ffffff" stroke="#cbd5e1" stroke-width="1"/>
  <text x="212" y="214" fill="#94a3b8" font-size="10">Willkommen bei der Praxis Dr. Mueller.</text>
  <text x="212" y="228" fill="#94a3b8" font-size="10">Wie kann ich Ihnen helfen?</text>

  <!-- Sprache dropdown -->
  <text x="204" y="264" fill="#64748b" font-size="10" font-weight="600">Sprache</text>
  <rect x="204" y="270" width="132" height="28" rx="4" fill="#ffffff" stroke="#cbd5e1" stroke-width="1"/>
  <text x="212" y="288" fill="#1e293b" font-size="11">Deutsch</text>
  <text x="316" y="288" fill="#94a3b8" font-size="10">v</text>

  <!-- Stimme dropdown -->
  <text x="348" y="264" fill="#64748b" font-size="10" font-weight="600">Stimme</text>
  <rect x="348" y="270" width="132" height="28" rx="4" fill="#ffffff" stroke="#cbd5e1" stroke-width="1"/>
  <text x="356" y="288" fill="#1e293b" font-size="11">Weiblich</text>
  <text x="460" y="288" fill="#94a3b8" font-size="10">v</text>

  <!-- DTMF Menu -->
  <text x="204" y="318" fill="#64748b" font-size="10" font-weight="600">DTMF-Menue</text>

  <rect x="204" y="326" width="276" height="28" rx="4" fill="#f8fafc" stroke="#e2e8f0" stroke-width="1"/>
  <rect x="204" y="326" width="36" height="28" rx="4" fill="#2563eb"/>
  <text x="217" y="344" fill="#ffffff" font-size="11" font-weight="bold">1</text>
  <text x="250" y="344" fill="#1e293b" font-size="11">Termin vereinbaren</text>

  <rect x="204" y="360" width="276" height="28" rx="4" fill="#f8fafc" stroke="#e2e8f0" stroke-width="1"/>
  <rect x="204" y="360" width="36" height="28" rx="4" fill="#2563eb"/>
  <text x="217" y="378" fill="#ffffff" font-size="11" font-weight="bold">2</text>
  <text x="250" y="378" fill="#1e293b" font-size="11">Rezept bestellen</text>

  <rect x="204" y="394" width="276" height="28" rx="4" fill="#f8fafc" stroke="#e2e8f0" stroke-width="1"/>
  <rect x="204" y="394" width="36" height="28" rx="4" fill="#2563eb"/>
  <text x="217" y="412" fill="#ffffff" font-size="11" font-weight="bold">3</text>
  <text x="250" y="412" fill="#1e293b" font-size="11">Befund abfragen</text>

  <rect x="204" y="428" width="276" height="28" rx="4" fill="#f8fafc" stroke="#e2e8f0" stroke-width="1"/>
  <rect x="204" y="428" width="36" height="28" rx="4" fill="#f59e0b"/>
  <text x="217" y="446" fill="#ffffff" font-size="11" font-weight="bold">0</text>
  <text x="250" y="446" fill="#1e293b" font-size="11">Weiterleitung an Mitarbeiter</text>

  <!-- Right Column: Letzte Voicebot-Anrufe -->
  <rect x="500" y="136" width="288" height="352" rx="8" fill="#ffffff" stroke="#e2e8f0" stroke-width="1"/>
  <text x="512" y="160" fill="#1e293b" font-size="13" font-weight="bold">Letzte Voicebot-Anrufe</text>
  <line x1="500" y1="170" x2="788" y2="170" stroke="#e2e8f0" stroke-width="1"/>

  <!-- Call entries -->
  <rect x="512" y="180" width="264" height="48" rx="6" fill="#f8fafc" stroke="#e2e8f0" stroke-width="1"/>
  <circle cx="528" cy="200" r="5" fill="#22c55e"/>
  <text x="540" y="196" fill="#1e293b" font-size="11" font-weight="600">+49 176 1234567</text>
  <text x="540" y="210" fill="#64748b" font-size="9">Termin gebucht - 3:24 min</text>
  <text x="726" y="196" fill="#94a3b8" font-size="9">09:14</text>

  <rect x="512" y="236" width="264" height="48" rx="6" fill="#f8fafc" stroke="#e2e8f0" stroke-width="1"/>
  <circle cx="528" cy="256" r="5" fill="#22c55e"/>
  <text x="540" y="252" fill="#1e293b" font-size="11" font-weight="600">+49 151 9876543</text>
  <text x="540" y="266" fill="#64748b" font-size="9">Rezept angefordert - 1:47 min</text>
  <text x="726" y="252" fill="#94a3b8" font-size="9">09:08</text>

  <rect x="512" y="292" width="264" height="48" rx="6" fill="#f8fafc" stroke="#e2e8f0" stroke-width="1"/>
  <circle cx="528" cy="312" r="5" fill="#f59e0b"/>
  <text x="540" y="308" fill="#1e293b" font-size="11" font-weight="600">+49 170 5551234</text>
  <text x="540" y="322" fill="#64748b" font-size="9">Weitergeleitet - 0:52 min</text>
  <text x="726" y="308" fill="#94a3b8" font-size="9">08:55</text>

  <rect x="512" y="348" width="264" height="48" rx="6" fill="#f8fafc" stroke="#e2e8f0" stroke-width="1"/>
  <circle cx="528" cy="368" r="5" fill="#22c55e"/>
  <text x="540" y="364" fill="#1e293b" font-size="11" font-weight="600">+49 162 4447890</text>
  <text x="540" y="378" fill="#64748b" font-size="9">Termin gebucht - 2:11 min</text>
  <text x="726" y="364" fill="#94a3b8" font-size="9">08:41</text>

  <rect x="512" y="404" width="264" height="48" rx="6" fill="#f8fafc" stroke="#e2e8f0" stroke-width="1"/>
  <circle cx="528" cy="424" r="5" fill="#ef4444"/>
  <text x="540" y="420" fill="#1e293b" font-size="11" font-weight="600">+49 155 3332211</text>
  <text x="540" y="434" fill="#64748b" font-size="9">Abgebrochen - 0:18 min</text>
  <text x="726" y="420" fill="#94a3b8" font-size="9">08:30</text>

  <rect x="512" y="460" width="264" height="20" rx="6" fill="transparent"/>
  <text x="610" y="476" fill="#2563eb" font-size="10" text-anchor="middle" font-weight="600">Alle Anrufe anzeigen ...</text>
</svg>